{"title":"Amiru Konohana - Charming Big Tits. Dance with air soap balls (U","uid":10806507,"size":940877292,"categoryP":"porn","categoryS":"movie_clips","magnet":"?xt=urn:btih:dab765e9b518c6916f00de8a910ec0ad3bc8a5a8&amp;dn=Amiru+Konohana+-+Charming+Big+Tits.+Dance+with+air+soap+balls+%28U&amp;tr=udp%3A%2F%2Ftracker.openbittorrent.com%3A80&amp;tr=udp%3A%2F%2Fopen.demonii.com%3A1337&amp;tr=udp%3A%2F%2Ftracker.coppersurfer.tk%3A6969&amp;tr=udp%3A%2F%2Fexodus.desync.com%3A6969","seeders":1,"leechers":1,"uploader":"ThousandPeers","files":-1,"time":1408387721,"description":"Format                                   : Windows Media\nFile size                                : 895 MiB\nDuration                                 : 1h 1mn\nOverall bit rate mode                    : Constant\nOverall bit rate                         : 2 028 Kbps\nMaximum Overall bit rate                 : 2 071 Kbps\nEncoded date                             : UTC 2014-08-11 12:19:53.282\n\nVideo\nID                                       : 1\nFormat                                   : VC-1\nFormat profile                           : MP@HL\nCodec ID                                 : WMV3\nCodec ID/Info                            : Windows Media Video 9\nCodec ID/Hint                            : WMV3\nDescription of the codec                 : Windows Media Video 9\nDuration                                 : 1h 1mn\nBit rate mode                            : Constant\nBit rate                                 : 1 920 Kbps\nWidth                                    : 704 pixels\nHeight                                   : 396 pixels\nDisplay aspect ratio                     : 16:9\nFrame rate                               : 60.000 fps\nBit depth                                : 8 bits\nScan type                                : Progressive\nCompression mode                         : Lossy\nBits/(Pixel*Frame)                       : 0.115\nStream size                              : 848 MiB (95%)\nLanguage                                 : Russian\n\nAudio\nID                                       : 2\nFormat                                   : WMA\nFormat version                           : Version 2\nCodec ID                                 : 161\nCodec ID/Info                            : Windows Media Audio\nDescription of the codec                 : Windows Media Audio 9.2 - 128 kbps, 48 kHz, stereo 1-pass CBR\nDuration                                 : 1h 1mn\nBit rate mode                            : Constant\nBit rate                                 : 128 Kbps\nChannel(s)                               : 2 channels\nSampling rate                            : 48.0 KHz\nBit depth                                : 16 bits\nStream size                              : 56.5 MiB (6%)\nLanguage                                 : Russian\n","torrent":{"xt":"urn:btih:dab765e9b518c6916f00de8a910ec0ad3bc8a5a8","amp;dn":"Amiru+Konohana+-+Charming+Big+Tits.+Dance+with+air+soap+balls+%28U","amp;tr":["udp%3A%2F%2Ftracker.openbittorrent.com%3A80","udp%3A%2F%2Fopen.demonii.com%3A1337","udp%3A%2F%2Ftracker.coppersurfer.tk%3A6969","udp%3A%2F%2Fexodus.desync.com%3A6969"],"infoHash":"dab765e9b518c6916f00de8a910ec0ad3bc8a5a8","infoHashBuffer":{"type":"Buffer","data":[218,183,101,233,181,24,198,145,111,0,222,138,145,14,192,173,59,200,165,168]},"announce":[],"urlList":[]}}